<?xml version="1.0" standalone="no"?> <!DOCTYPE svg PUBLIC "-//W3C//DTD SVG 1.0//EN" "http://www.w3.org/TR/2001/REC-SVG-20010904/DTD/svg10.dtd" > <svg xmlns="http://www.w3.org/2000/svg" width="100%" height="100%">
<defs >
<font id="mreavessanot-bold" horiz-adv-x="934" ><font-face
    font-family="MrEavesSanOT"
    units-per-em="2048"
    panose-1="2 11 8 3 6 5 2 2 2 2"
    ascent="1720"
    descent="-553"
    alphabetic="0" />
<missing-glyph horiz-adv-x="1024" />
<glyph unicode=" " glyph-name="space" horiz-adv-x="354" />
<glyph unicode="!" glyph-name="exclam" horiz-adv-x="542" d="M422 1229L340 365H203L123 1229H422ZM403 172T403 117T365 23T270 -16Q215 -16 176 23T137 117T176 211T270 250T364 211Z" />
<glyph unicode="&quot;" glyph-name="quotedbl" horiz-adv-x="847" d="M729 1137Q729 1106 711 1057T672 929T643 754H569Q562 850 541 929T501 1057T483 1137Q483 1188 520 1226T606 1264Q657 1264 693 1227T729 1137ZM362 1137Q362 1106 345 1057T305 929T276
754H203Q195 850 173 929T134 1057T117 1137Q117 1189 153 1226T240 1264T326 1227T362 1137Z" />
<glyph unicode="#" glyph-name="numbersign" horiz-adv-x="919" d="M879 969L854 836H707L664 588H815L791 455H641L596 193H469L514 455H315L270 193H143L188 455H39L63 588H211L252 836H102L127 969H274L319 1229H446L403 969H600L645 1229H772L729 969H879ZM578
836H381L338 588H537L578 836Z" />
<glyph unicode="$" glyph-name="dollar" horiz-adv-x="995" d="M924 371Q924 284 894 215T812 102T694 33T551 0V-176H455V-2Q330 5 226 47T63 143L113 330Q173 277 264 231T455 176V537Q264 589 178 678T92 899Q92 1039 190 1130T455 1231V1399H551V1231Q642
1224 727 1192T864 1120L817 952Q687 1032 551 1051V754Q744 700 834 609T924 371ZM455 780V1053Q384 1045 346 1009T307 918Q307 873 341 839T455 780ZM551 508V178Q622 190 665 234T709 344Q709 402 672 441T551 508Z" />
<glyph unicode="%" glyph-name="percent" horiz-adv-x="1400" d="M657 954Q657 822 577 735T371 647Q247 647 167 735T86 954Q86 1084 167 1172T371 1260Q496 1260 576 1172T657 954ZM494 954Q494 1045 460 1089T371 1133Q315 1133 283 1089T250 954Q250 862 282
818T371 774Q426 774 460 818T494 954ZM1315 283Q1315 151 1234 63T1028 -25Q904 -25 824 63T743 283Q743 413 823 500T1028 588Q1153 588 1234 501T1315 283ZM1151 283Q1151 374 1118 417T1028 461T940 418T907 283Q907 191 939 147T1028 102T1117 146T1151 283ZM1133
1225L346 -37L266 4L1051 1266L1133 1225Z" />
<glyph unicode="&amp;" glyph-name="ampersand" horiz-adv-x="1359" d="M1368 111Q1319 37 1252 2T1120 -33Q1043 -33 978 -13T838 63Q720 -33 545 -33Q423 -33 323 5T157 126T92 322Q92 429 153 507T322 653Q223 827 223 950Q223 1084 332 1174T598 1264Q741
1264 834 1188T928 997Q928 971 922 946T908 900T884 857T854 819T816 783T776 750T729 718T682 689T632 660T584 631Q689 485 821 354Q835 390 844 481T854 641H1217V494H1024Q1016 327 956 215Q1016 161 1060 141T1153 121Q1231 121 1298 201L1368 111ZM727 997Q727
1049 690 1080T596 1112Q518 1112 477 1065T436 952Q436 861 496 756Q553 788 586 810T656 863T710 927T727 997ZM709 178Q536 343 418 512Q324 433 324 332Q324 244 389 185T561 125Q650 125 709 178Z" />
<glyph unicode="&apos;" glyph-name="quotesingle" horiz-adv-x="485" d="M362 1137Q362 1106 345 1057T305 929T276 754H203Q195 850 173 929T134 1057T117 1137Q117 1189 153 1226T240 1264T326 1227T362 1137Z" />
<glyph unicode="(" glyph-name="parenleft" horiz-adv-x="686" d="M635 -176L571 -227Q152 116 152 604T569 1436L635 1384Q583 1326 538 1260T443 1095T364 869T334 604T363 340T443 114T538 -51T635 -176Z" />
<glyph unicode=")" glyph-name="parenright" horiz-adv-x="686" d="M535 1093T535 604T117 -227L53 -176Q105 -118 150 -52T245 113T324 339T354 604T325 868T245 1094T150 1259T53 1384L119 1436Q535 1093 535 604Z" />
<glyph unicode="*" glyph-name="asterisk" horiz-adv-x="833" d="M750 688Q730 652 689 643T612 655Q588 669 545 727T446 827Q455 760 483 696T512 602Q512 558 485 527T418 496Q377 496 350 527T322 602Q322 630 351 695T389 827Q346 796 316 760T266 697T223
657Q188 636 147 644T86 688Q65 724 77 764T127 825Q149 837 221 844T358 879Q294 907 223 914T129 936Q92 958 79 996T86 1071T147 1116T223 1104Q246 1091 266 1064T316 1000T389 930Q381 999 353 1064T324 1159Q324 1202 350 1233T418 1264Q458 1264 486 1233T514
1159Q514 1129 485 1064T446 932Q490 964 520 1000T570 1063T612 1102Q647 1124 688 1116T750 1071Q771 1036 759 996T709 934Q687 922 654 919T574 908T475 879Q539 852 610 845T707 823Q744 802 756 763T750 688Z" />
<glyph unicode="+" glyph-name="plus" horiz-adv-x="929" d="M831 399H535V100H397V399H98V537H397V834H535V537H831V399Z" />
<glyph unicode="," glyph-name="comma" horiz-adv-x="520" d="M395 94Q395 -2 336 -105T166 -276L115 -225Q183 -154 213 -108T254 -2H244Q193 -1 158 36T123 127T161 218T254 256Q311 256 353 214T395 94Z" />
<glyph unicode="-" glyph-name="hyphen" horiz-adv-x="608" d="M518 342H90V498H518V342Z" />
<glyph unicode="." glyph-name="period" horiz-adv-x="520" d="M399 123Q399 64 359 24T260 -16T162 24T121 123Q121 180 161 220T260 260T358 220T399 123Z" />
<glyph unicode="/" glyph-name="slash" horiz-adv-x="694" d="M680 1235L102 -37L14 -6L592 1268L680 1235Z" />
<glyph unicode="0" glyph-name="zero" horiz-adv-x="1155" d="M1081 442Q1081 304 1013 194T830 26T580 -33Q442 -33 327 25T143 194T74 442Q74 579 142 689T326 858T580 918Q716 918 830 859T1012 689T1081 442ZM842 301T842 442T768 664T580 745Q462 745 388
665T313 442T387 220T580 139Q694 139 768 220Z" />
<glyph unicode="1" glyph-name="one" horiz-adv-x="614" d="M436 0H199V692H68V846L436 911V0Z" />
<glyph unicode="2" glyph-name="two" horiz-adv-x="993" d="M907 0H86V156L416 369Q529 442 580 492T631 600Q631 665 584 696T459 727Q378 727 287 691T113 590V797Q172 843 280 880T485 918Q657 918 768 840T879 631Q879 526 818 453T645 317L420 190H907V0Z" />
<glyph unicode="3" glyph-name="three" horiz-adv-x="993" d="M915 14Q915 -114 853 -212T687 -362T453 -414Q343 -414 243 -379T80 -287V-84Q239 -233 422 -233Q536 -233 607 -164T678 18Q678 120 622 182T463 244Q369 244 291 174L190 285L584 690H84V885H899V770L549
408Q710 396 812 292T915 14Z" />
<glyph unicode="4" glyph-name="four" horiz-adv-x="1122" d="M1073 0H850V-399H612V0H47V127L655 903H850V176H1073V0ZM612 176V596L283 176H612Z" />
<glyph unicode="5" glyph-name="five" horiz-adv-x="983" d="M913 20Q913 -177 782 -295T453 -414Q343 -414 243 -379T80 -287V-84Q233 -233 422 -233Q535 -233 604 -164T674 14Q674 116 616 178T453 240Q300 240 233 109L123 164V885H864V690H315V352Q390 420
522 420Q694 420 803 311T913 20Z" />
<glyph unicode="6" glyph-name="six" horiz-adv-x="1075" d="M999 385Q999 202 872 84T555 -35Q490 -35 431 -22T307 31T197 133T120 302T90 547Q90 882 230 1074T633 1266Q722 1266 803 1241T926 1184V997Q795 1083 655 1083Q351 1083 332 686Q370 730 450 763T610
797Q781 797 890 680T999 385ZM561 627Q485 627 422 592T328 504Q327 396 345 320T397 204T468 149T549 133Q646 133 703 200T760 379Q760 493 708 560T561 627Z" />
<glyph unicode="7" glyph-name="seven" horiz-adv-x="937" d="M891 772Q796 632 634 247T428 -399H172Q225 -147 389 219T627 690H27V885H891V772Z" />
<glyph unicode="8" glyph-name="eight" horiz-adv-x="1105" d="M1026 336Q1026 170 892 68T555 -35Q352 -35 216 67T80 336Q80 461 157 551T367 684Q262 724 208 798T154 965Q154 1097 272 1183T555 1270Q717 1270 834 1184T952 965Q952 872 898 798T739 684Q871
641 948 551T1026 336ZM729 963Q729 1030 680 1072T555 1114Q478 1114 429 1072T379 963Q379 900 423 848T555 768Q641 796 685 848T729 963ZM786 338Q786 523 555 588Q319 522 319 338Q319 251 385 191T555 131Q656 131 721 190T786 338Z" />
<glyph unicode="9" glyph-name="nine" horiz-adv-x="1075" d="M985 338Q985 116 925 -50T740 -313T442 -410Q352 -410 271 -385T150 -328V-141Q282 -227 420 -227Q562 -227 647 -121T741 199Q705 154 625 121T465 88Q292 88 183 204T74 500Q74 682 202 801T520
920Q585 920 644 907T768 854T878 752T955 583T985 338ZM745 381Q748 489 730 565T678 681T607 736T526 752Q428 752 372 685T315 506Q315 391 366 325T514 258Q591 258 653 293T745 381Z" />
<glyph unicode=":" glyph-name="colon" horiz-adv-x="520" d="M393 620T393 565T354 471T260 432T166 471T127 565T165 659T260 698T354 659ZM393 172T393 117T355 23T260 -16T166 23T127 117T166 211T260 250T354 211Z" />
<glyph unicode=";" glyph-name="semicolon" horiz-adv-x="520" d="M391 90Q391 -2 335 -103T172 -270L121 -219Q187 -151 217 -106T256 -2H246Q198 -1 165 36T131 123Q131 172 168 209T256 246Q311 246 351 205T391 90ZM393 620T393 565T354 471T260 432T166 471T127
565T165 659T260 698T354 659Z" />
<glyph unicode="&lt;" glyph-name="less" horiz-adv-x="929" d="M823 129L754 27L111 471L754 918L823 815L346 471L823 129Z" />
<glyph unicode="=" glyph-name="equal" horiz-adv-x="929" d="M764 541H166V678H764V541ZM764 258H166V395H764V258Z" />
<glyph unicode="&gt;" glyph-name="greater" horiz-adv-x="929" d="M178 918L821 471L178 27L106 129L586 471L106 815L178 918Z" />
<glyph unicode="?" glyph-name="question" horiz-adv-x="909" d="M852 942Q852 872 828 814T755 708T650 625T514 551L449 520L428 365H289L268 623L362 668Q501 734 552 793T604 926Q604 1002 550 1041T408 1081Q322 1081 220 1037T47 926V1133Q111 1189 220
1226T436 1264Q519 1264 592 1245T725 1187T818 1085T852 942ZM492 172T492 117T453 23T358 -16Q303 -16 264 23T225 117T264 211T358 250T452 211Z" />
<glyph unicode="@" glyph-name="at" horiz-adv-x="1445" d="M1380 498Q1380 366 1319 247T1167 59T985 -10Q873 -10 838 88Q755 -16 641 -16Q512 -16 450 94T416 367Q444 522 557 632T805 743Q875 743 936 709H1077L987 197Q976 137 988 111T1040 84Q1122 84 1199
204T1276 494Q1276 624 1210 725T1038 878T809 930Q689 930 580 881T393 749T268 556T221 326Q221 163 294 38T488 -152T756 -217Q985 -217 1196 -86L1229 -150Q1010 -307 739 -307Q601 -307 477 -259T264 -128T123 71T70 319Q70 465 128 598T283 827T516 981T799
1038Q960 1038 1092 972T1302 781T1380 498ZM909 604Q870 641 807 641Q724 641 664 565T582 362Q561 238 586 168T688 98Q742 98 790 147T852 272L909 604Z" />
<glyph unicode="A" glyph-name="A" horiz-adv-x="1273" d="M1255 0H1006L881 303H383L258 0H16L539 1229H733L1255 0ZM813 477L633 924L451 477H813Z" />
<glyph unicode="B" glyph-name="B" horiz-adv-x="1112" d="M1049 360Q1049 284 1025 220T952 106T822 28T633 0H135V1229H612Q708 1229 781 1204T897 1134T962 1032T983 907T945 772T852 666Q942 626 995 542T1049 360ZM807 369Q807 457 754 509T590 561H385V174H590Q701
174 754 227T807 369ZM385 1055V735H571Q660 735 704 779T748 895T704 1011T571 1055H385Z" />
<glyph unicode="C" glyph-name="C" horiz-adv-x="1251" d="M1163 98Q1087 40 972 7T735 -27Q602 -27 483 18T273 144T129 347T76 614T129 881T272 1084T482 1210T735 1255Q857 1255 972 1222T1163 1130V903Q990 1055 762 1055Q575 1055 457 937T338 614Q338 412
456 293T762 174Q990 174 1163 326V98Z" />
<glyph unicode="D" glyph-name="D" horiz-adv-x="1341" d="M1266 744T1266 614T1225 375T1102 181T883 48T567 0H135V1229H567Q746 1229 883 1181T1102 1048T1225 853ZM1010 614Q1010 1028 555 1028H385V201H555Q1010 201 1010 614Z" />
<glyph unicode="E" glyph-name="E" horiz-adv-x="1034" d="M936 0H135V1229H936V1034H385V745H834V551H385V195H936V0Z" />
<glyph unicode="F" glyph-name="F" horiz-adv-x="946" d="M922 1034H385V737H819V545H385V0H135V1229H922V1034Z" />
<glyph unicode="G" glyph-name="G" horiz-adv-x="1368" d="M1233 86Q1230 85 1202 73T1158 55T1107 35T1045 14T977 -4T900 -20T818 -30T729 -35Q597 -35 478 11T270 140T129 346T76 614Q76 731 111 833T208 1012T354 1143T538 1227T745 1255Q868 1255 987 1222T1182
1130V903Q1000 1055 770 1055Q575 1055 456 934T336 604Q336 399 452 277T756 154Q896 154 993 205V444H776V629H1233V86Z" />
<glyph unicode="H" glyph-name="H" horiz-adv-x="1349" d="M1214 0H965V543H385V0H135V1229H385V754H965V1229H1214V0Z" />
<glyph unicode="I" glyph-name="I" horiz-adv-x="520" d="M385 0H135V1229H385V0Z" />
<glyph unicode="J" glyph-name="J" horiz-adv-x="520" d="M385 -84Q385 -229 308 -318T84 -408Q18 -408 -34 -388T-115 -340V-182Q-94 -202 -54 -219T16 -236Q81 -236 108 -198T135 -59V1229H385V-84Z" />
<glyph unicode="K" glyph-name="K" horiz-adv-x="1232" d="M1251 0H946L475 532L385 436V0H135V1229H385V684L897 1229H1169L641 680L1251 0Z" />
<glyph unicode="L" glyph-name="L" horiz-adv-x="960" d="M936 0H135V1229H385V195H936V0Z" />
<glyph unicode="M" glyph-name="M" horiz-adv-x="1605" d="M1468 0H1241V754Q1241 774 1244 819T1249 870L1204 754L874 0H721L391 754Q372 799 348 870L351 820Q354 771 354 754V0H135V1229H401L807 330L1210 1229H1468V0Z" />
<glyph unicode="N" glyph-name="N" horiz-adv-x="1312" d="M1176 0H1001L358 811V0H135V1229H309L952 418V1229H1176V0Z" />
<glyph unicode="O" glyph-name="O" horiz-adv-x="1486" d="M1409 799T1409 614T1322 280T1083 48T745 -35T406 48T165 280T76 614T164 948T406 1181T745 1264T1082 1181T1321 949ZM1147 614Q1147 815 1037 940T745 1065Q562 1065 450 940T338 614Q338 414 450
289T745 164Q926 164 1036 289T1147 614Z" />
<glyph unicode="P" glyph-name="P" horiz-adv-x="1056" d="M1028 838Q1028 756 1003 687T927 563T793 477T602 446H385V0H135V1229H602Q709 1229 792 1198T926 1113T1002 989T1028 838ZM780 838Q780 932 728 991T561 1051H385V625H561Q675 625 727 683T780 838Z" />
<glyph unicode="Q" glyph-name="Q" horiz-adv-x="1486" d="M1698 -162Q1697 -229 1677 -293T1616 -414T1508 -506T1352 -541Q1285 -541 1220 -519T1106 -463T1001 -390T900 -317T796 -261T682 -238Q599 -238 540 -267T420 -354L322 -266Q350 -212 418 -136T563
-12Q345 42 211 212T76 614Q76 799 164 948T406 1181T745 1264T1082 1181T1321 949T1409 614Q1409 437 1329 294T1115 68T817 -33Q718 -43 641 -100Q731 -86 812 -98T953 -136T1072 -196T1177 -261T1278 -313T1384 -334Q1456 -334 1501 -289T1563 -162H1698ZM1147
614Q1147 815 1037 940T745 1065Q562 1065 450 940T338 614Q338 414 450 289T745 164Q926 164 1036 289T1147 614Z" />
<glyph unicode="R" glyph-name="R" horiz-adv-x="1187" d="M1159 8Q1085 -14 1014 -14Q898 -14 811 42T659 227L528 489H385V0H135V1229H618Q724 1229 805 1200T936 1118T1009 1001T1034 858Q1034 726 963 633T764 510L885 299Q930 221 977 189T1090 156Q1129
156 1159 166V8ZM385 1051V666H578Q688 666 738 717T788 856Q788 946 738 998T578 1051H385Z" />
<glyph unicode="S" glyph-name="S" horiz-adv-x="1017" d="M946 354Q946 258 909 184T809 65T666 -2T498 -25Q357 -25 246 19T61 129L119 326Q294 160 498 160Q593 160 654 205T715 330Q715 408 660 453T457 535Q96 623 96 911Q96 1064 210 1160T520 1257Q627
1257 724 1223T889 1137L836 963Q767 1009 682 1039T518 1069Q427 1069 377 1032T326 928Q326 870 372 830T537 760Q752 706 849 610T946 354Z" />
<glyph unicode="T" glyph-name="T" horiz-adv-x="1124" d="M1102 1034H686V0H436V1034H20V1229H1102V1034Z" />
<glyph unicode="U" glyph-name="U" horiz-adv-x="1400" d="M1264 567Q1264 415 1222 299T1104 110T926 2T700 -35Q577 -35 475 1T297 110T178 298T135 567V1229H389V575Q389 378 470 279T705 180Q857 180 938 279T1020 575V1229H1264V567Z" />
<glyph unicode="V" glyph-name="V" horiz-adv-x="1267" d="M1249 1229L727 0H539L16 1229H272L639 346L1001 1229H1249Z" />
<glyph unicode="W" glyph-name="W" horiz-adv-x="1779" d="M1761 1229L1341 0H1159L915 735Q908 753 900 788T891 829Q890 828 885 811T874 769T864 735L621 0H438L16 1229H264L512 457Q516 445 521 419T531 368T537 342L567 457L805 1229H983L1223 457L1251 342Q1266
428 1276 457L1522 1229H1761Z" />
<glyph unicode="X" glyph-name="X" horiz-adv-x="1208" d="M1212 0H928L602 467L272 0H-4L451 629L20 1229H305L606 795L911 1229H1188L758 631L1212 0Z" />
<glyph unicode="Y" glyph-name="Y" horiz-adv-x="1220" d="M1217 1229L735 492V0H485V492L4 1229H276L614 694L952 1229H1217Z" />
<glyph unicode="Z" glyph-name="Z" horiz-adv-x="1060" d="M987 1229V1108L389 195H983V0H74V121L672 1034H82V1229H987Z" />
<glyph unicode="[" glyph-name="bracketleft" horiz-adv-x="677" d="M590 -180H229V1389H590V1284H399V-76H590V-180Z" />
<glyph unicode="\" glyph-name="backslash" horiz-adv-x="694" d="M680 -6L592 -37L12 1235L100 1268L680 -6Z" />
<glyph unicode="]" glyph-name="bracketright" horiz-adv-x="677" d="M451 -180H90V-76H279V1284H90V1389H451V-180Z" />
<glyph unicode="^" glyph-name="asciicircum" horiz-adv-x="989" d="M946 618L846 551L496 1034L147 551L45 618L496 1266L946 618Z" />
<glyph unicode="_" glyph-name="underscore" horiz-adv-x="704" d="M721 -90H-16V0H721V-90Z" />
<glyph unicode="`" glyph-name="grave" horiz-adv-x="614" d="M508 883L471 825L184 965Q131 992 131 1036Q131 1065 152 1086T203 1108Q212 1108 221 1106T236 1101T253 1092T267 1082T283 1070T299 1057L508 883Z" />
<glyph unicode="a" glyph-name="a" horiz-adv-x="880" d="M817 18Q802 4 763 -7T686 -18Q537 -18 512 100Q402 -18 262 -18Q181 -18 127 33T72 166T130 308T284 402T504 446V469Q504 529 476 552T383 575Q328 575 254 548T121 483V643Q167 672 264 698T430 725Q731
725 731 475V164Q731 96 776 96Q797 96 817 104V18ZM504 211V330Q276 298 276 195Q276 162 298 145T356 127Q424 127 504 211Z" />
<glyph unicode="b" glyph-name="b" horiz-adv-x="1003" d="M924 350Q924 188 829 81T590 -27Q518 -27 447 2T338 88L289 -6H121V1229L350 1253V629Q394 677 458 701T590 725Q733 725 828 618T924 350ZM524 557Q468 557 422 528T350 457V242Q375 199 421 170T524
141Q600 141 647 196T694 350Q694 448 647 502T524 557Z" />
<glyph unicode="c" glyph-name="c" horiz-adv-x="796" d="M717 51Q615 -23 461 -23Q299 -23 191 81T82 350Q82 512 190 616T461 721Q615 721 717 647V475Q628 551 512 551Q426 551 369 498T311 350Q311 254 368 201T512 147Q631 147 717 223V51Z" />
<glyph unicode="d" glyph-name="d" horiz-adv-x="1032" d="M971 18Q953 4 914 -7T838 -18Q691 -18 666 88Q626 30 556 2T414 -27Q271 -27 176 80T80 350Q80 511 175 618T414 725Q481 725 545 701T653 629V1229L883 1253V164Q883 96 928 96Q945 96 971 104V18ZM479
557Q403 557 356 502T309 350Q309 251 356 196T479 141Q535 141 582 170T653 242V457Q629 499 582 528T479 557Z" />
<glyph unicode="e" glyph-name="e" horiz-adv-x="870" d="M788 92Q657 -27 463 -27Q291 -27 186 80T80 352Q80 518 187 621T446 725Q584 725 678 644T772 438Q772 386 760 338H305Q305 297 316 263T351 198T419 150T526 133Q639 133 731 205L788 92ZM563 481Q563
528 533 558T449 588Q399 588 363 556T313 453H561Q563 465 563 481Z" />
<glyph unicode="f" glyph-name="f" horiz-adv-x="591" d="M557 551H385V0H156V551H31V698H156V963Q156 1111 235 1183T457 1255Q511 1255 553 1241V1094Q513 1104 498 1104Q440 1104 413 1072T385 961V698H557V551Z" />
<glyph unicode="g" glyph-name="g" horiz-adv-x="884" d="M422 725Q466 725 543 712T676 698H825V551H725Q754 500 754 444Q754 328 665 250T455 162Q371 155 338 139T305 90Q305 70 325 58T377 41T467 29Q825 -7 825 -254Q825 -384 710 -465T428 -547Q256 -547
145 -486T33 -336Q33 -271 77 -229T180 -174L285 -211Q229 -238 229 -295Q229 -342 283 -368T420 -395Q507 -395 558 -364T610 -283Q610 -232 564 -204T406 -166Q96 -142 96 35Q96 88 139 135T244 201Q174 231 128 297T82 444Q82 558 175 641T422 725ZM424 590Q365
590 328 551T291 444T328 338T424 299Q482 299 519 338T557 444Q557 511 520 550T424 590Z" />
<glyph unicode="h" glyph-name="h" horiz-adv-x="989" d="M870 0H641V383Q641 467 611 505T518 543Q454 543 402 492T350 373V0H121V1229L350 1253V588Q380 644 456 684T606 725Q741 725 805 642T870 420V0Z" />
<glyph unicode="i" glyph-name="i" horiz-adv-x="471" d="M358 1018Q358 967 322 930T236 893Q185 893 149 930T113 1018Q113 1068 149 1104T236 1141Q285 1141 321 1105T358 1018ZM350 0H121V698L350 723V0Z" />
<glyph unicode="j" glyph-name="j" horiz-adv-x="471" d="M358 1018Q358 967 322 930T236 893Q185 893 149 930T113 1018Q113 1068 149 1104T236 1141Q285 1141 321 1105T358 1018ZM350 -279Q350 -397 285 -472T98 -547Q42 -547 -6 -530T-74 -494V-356Q-26 -393
27 -393Q78 -393 99 -365T121 -258V698L350 723V-279Z" />
<glyph unicode="k" glyph-name="k" horiz-adv-x="892" d="M866 0H606L387 285L348 244V0H121V1229L350 1253V432L623 698H858L545 401L866 0Z" />
<glyph unicode="l" glyph-name="l" horiz-adv-x="497" d="M436 18Q419 4 381 -7T305 -18Q121 -18 121 162V1229L350 1253V164Q350 96 393 96Q412 96 436 104V18Z" />
<glyph unicode="m" glyph-name="m" horiz-adv-x="1454" d="M1335 0H1106V391Q1106 470 1080 506T995 543Q935 543 889 495T842 373V0H612V391Q612 470 587 506T502 543Q441 543 396 495T350 373V0H121V684L330 707L342 578Q374 643 445 684T592 725Q780 725 825
565Q860 634 930 679T1085 725Q1335 725 1335 420V0Z" />
<glyph unicode="n" glyph-name="n" horiz-adv-x="989" d="M870 0H641V383Q641 467 611 505T518 543Q454 543 402 492T350 373V0H121V684L330 707L342 575Q373 640 451 682T606 725Q741 725 805 642T870 420V0Z" />
<glyph unicode="o" glyph-name="o" horiz-adv-x="966" d="M895 350Q895 188 775 79T483 -31Q310 -31 191 78T72 350T191 620T483 729Q655 729 775 620T895 350ZM666 350Q666 445 616 502T483 559Q402 559 352 502T301 350Q301 254 351 197T483 139Q566 139 616
196T666 350Z" />
<glyph unicode="p" glyph-name="p" horiz-adv-x="1003" d="M924 348Q924 187 829 80T590 -27Q523 -27 459 -3T350 70V-532H121V684L328 707L338 610Q376 667 447 696T590 725Q733 725 828 618T924 348ZM524 141Q600 141 647 195T694 348Q694 447 647 502T524 557Q468
557 422 528T350 457V242Q375 199 421 170T524 141Z" />
<glyph unicode="q" glyph-name="q" horiz-adv-x="1003" d="M80 348Q80 511 175 618T414 725Q486 725 556 696T666 610L715 707H883V-532H653V70Q609 21 545 -3T414 -27Q271 -27 176 80T80 348ZM479 141Q535 141 582 170T653 242V457Q629 499 582 528T479 557Q403
557 356 502T309 348Q309 251 356 196T479 141Z" />
<glyph unicode="r" glyph-name="r" horiz-adv-x="641" d="M598 504Q502 532 426 490T350 360V0H121V684L330 707L342 573Q378 640 445 682T598 725V504Z" />
<glyph unicode="s" glyph-name="s" horiz-adv-x="724" d="M651 225Q651 109 576 41T356 -27Q209 -27 66 57L102 209Q238 125 354 125Q455 125 455 190Q455 220 428 236T338 264Q207 289 149 351T90 500Q90 594 159 659T371 725Q496 725 621 655L586 512Q473 575
375 575Q287 575 287 520Q287 494 309 481T381 457Q522 430 586 367T651 225Z" />
<glyph unicode="t" glyph-name="t" horiz-adv-x="628" d="M571 49Q538 21 482 2T365 -18Q265 -18 206 40T147 211V551H47V698H147V891L377 915V698H547V551H377V238Q377 179 394 154T457 129Q506 129 549 160L571 49Z" />
<glyph unicode="u" glyph-name="u" horiz-adv-x="1017" d="M954 18Q937 4 899 -7T823 -18Q661 -18 643 119Q613 61 537 17T383 -27Q248 -27 184 55T119 279V698H348V317Q348 233 378 195T473 156T588 207T639 326V698H868V164Q868 96 913 96Q934 96 954 104V18Z" />
<glyph unicode="v" glyph-name="v" horiz-adv-x="833" d="M817 698L506 -4H328L16 698H238L418 244L600 698H817Z" />
<glyph unicode="w" glyph-name="w" horiz-adv-x="1284" d="M1262 698L967 -4H799L643 420L485 -4H319L23 698H242L406 264L563 698H735L893 264L1055 698H1262Z" />
<glyph unicode="x" glyph-name="x" horiz-adv-x="870" d="M848 0H600L434 223L264 0H23L311 354L39 698H281L438 487L598 698H831L561 358L848 0Z" />
<glyph unicode="y" glyph-name="y" horiz-adv-x="837" d="M821 698L291 -532H70L309 18L16 698H238L420 238L604 698H821Z" />
<glyph unicode="z" glyph-name="z" horiz-adv-x="778" d="M705 0H61V84L401 541H82V698H696V614L354 158H705V0Z" />
<glyph unicode="{" glyph-name="braceleft" horiz-adv-x="684" d="M592 -160L543 -227Q483 -192 449 -168T382 -109T334 -30T310 74T301 223Q301 430 249 499Q221 536 150 561Q144 564 117 573V639Q196 666 223 687Q280 731 295 855Q301 910 301 989Q301 1097
312 1165T356 1284T428 1366T543 1440L592 1372Q567 1354 550 1336T521 1302T500 1258T488 1211T482 1148T480 1076T479 983Q479 896 468 833T439 732T389 668T325 630T244 606Q294 594 325 582T388 544T438 480T467 379T479 229Q479 173 479 148T480 82T485 24T493
-22T507 -64T527 -97T555 -130T592 -160Z" />
<glyph unicode="|" glyph-name="bar" horiz-adv-x="493" d="M301 -197H193V1405H301V-197Z" />
<glyph unicode="}" glyph-name="braceright" horiz-adv-x="684" d="M567 573Q487 545 461 525Q402 480 387 356Q381 301 381 223Q381 136 373 75T349 -30T302 -108T235 -168T141 -227L92 -160Q120 -139 138 -121T170 -74T189 -25T199 43T202 122T203 229Q203 316
214 379T244 480T295 544T359 582T440 606Q390 618 359 630T295 668T244 732T215 833T203 983Q203 1057 203 1089T199 1169T190 1236T170 1285T139 1332T92 1372L141 1440Q191 1411 221 1391T282 1342T328 1284T357 1211T376 1115T381 989Q381 919 385 868T402
781T427 723T463 686T505 662T558 642Q564 640 567 639V573Z" />
<glyph unicode="~" glyph-name="asciitilde" horiz-adv-x="911" d="M778 551Q778 283 594 283Q548 283 448 339T303 395Q268 395 251 373T219 291H131Q131 428 179 493T315 559Q362 559 461 503T606 446Q642 446 659 469T690 551H778Z" />
</font>
</defs>
</svg>
